<?xml version="1.0" encoding="UTF-8" standalone="no"?>
<svg width="248px" height="275px" viewBox="0 0 248 275" version="1.1" xmlns="http://www.w3.org/2000/svg" xmlns:xlink="http://www.w3.org/1999/xlink">
    <!-- Generator: Sketch 42 (36781) - http://www.bohemiancoding.com/sketch -->
    <title>asterisk-v1</title>
    <desc>Created with Sketch.</desc>
    <defs></defs>
    <g id="Page-1" stroke="none" stroke-width="1" fill="none" fill-rule="evenodd">
        <g id="asterisk-v1" transform="translate(-1.000000, -1.000000)" fill-rule="nonzero" fill="#000000">
            <g id="Group" transform="translate(0.307970, 0.367370)">
                <path d="M174.137243,274.7187 C147.753393,272.37936 124.795323,254.31342 116.249133,229.16596 C107.970393,204.80549 114.270943,177.73672 132.451593,159.55607 C146.288513,145.71915 166.011143,138.37132 185.106603,139.93902 C209.756127,141.96269 230.395658,155.95911 241.090052,177.90345 C253.645592,203.66675 248.389031,234.83592 228.060237,255.16471 C213.893603,269.33135 194.145087,276.49271 174.137243,274.7187 Z M188.722579,239.54804 L188.898968,228.16764 L196.833529,236.10846 C201.197534,240.47591 204.929965,244.04928 205.127813,244.04928 C205.592401,244.04928 216.944799,232.68929 216.944799,232.22439 C216.944799,232.03089 213.371429,228.30201 209.00398,223.93801 L201.063158,216.00345 L212.443563,215.82706 L223.823966,215.65067 L223.823966,207.36039 L223.823966,199.07011 L212.443563,198.89372 L201.063158,198.71734 L209.00398,190.78277 C213.371429,186.41877 216.944799,182.68634 216.944799,182.48849 C216.944799,182.0239 205.584809,170.6715 205.119911,170.6715 C204.926409,170.6715 201.197534,174.24487 196.833529,178.61232 L188.898968,186.55315 L188.722579,175.17274 L188.54619,163.79234 L180.255913,163.79234 L171.965633,163.79234 L171.789243,175.17274 L171.612853,186.55315 L163.678293,178.61232 C159.314293,174.24487 155.585413,170.6715 155.391913,170.6715 C154.927013,170.6715 143.567023,182.0239 143.567023,182.48849 C143.567023,182.68634 147.140393,186.41877 151.507843,190.78277 L159.448673,198.71734 L148.068263,198.89372 L136.687863,199.07011 L136.687863,207.36039 L136.687863,215.65067 L148.068263,215.82706 L159.448673,216.00345 L151.507843,223.93801 C147.140393,228.30201 143.567023,232.03444 143.567023,232.23229 C143.567023,232.69324 154.925133,244.04928 155.386163,244.04928 C155.576503,244.04928 159.345053,240.43901 163.760733,236.02646 L171.789243,228.00364 L171.789243,239.31905 C171.789243,245.54253 171.897933,250.74315 172.030773,250.87599 C172.163613,251.00883 175.933923,251.07497 180.409243,251.02298 L188.54619,250.92848 L188.722579,239.54804 Z M0.69203,116.16734 L0.69203,0.63263 L67.014253,0.63263 L133.336473,0.63263 L133.336473,34.67568 L133.336473,68.71873 L163.146193,68.71873 L192.955912,68.71873 L192.955912,99.08139 C192.955912,127.83169 192.923142,129.43448 192.338551,129.26382 C190.38092,128.69231 182.625653,128.26286 177.610393,128.44824 C165.620993,128.8914 155.921823,131.3366 145.142093,136.63362 C136.948243,140.65997 130.267313,145.54413 123.608883,152.37568 C113.932823,162.30331 107.178433,174.30269 103.723313,187.70299 C100.314623,200.92323 100.486153,216.06562 104.188883,228.80165 L105.032113,231.70206 L52.86207,231.70206 L0.69203,231.70206 L0.69203,116.16734 Z M146.036473,28.64906 C146.036473,13.59574 146.171883,1.3323 146.337383,1.39698 C146.629953,1.51131 191.861924,54.75205 192.383576,55.59611 C192.585481,55.9228 187.354543,56.01873 169.340623,56.01873 L146.036473,56.01873 L146.036473,28.64906 Z" id="Shape"></path>
            </g>
        </g>
    </g>
</svg>