<?xml version="1.0" encoding="UTF-8" standalone="no"?>
<svg width="100px" height="100px" viewBox="0 0 100 100" version="1.1" xmlns="http://www.w3.org/2000/svg" xmlns:xlink="http://www.w3.org/1999/xlink">
    <!-- Generator: Sketch 42 (36781) - http://www.bohemiancoding.com/sketch -->
    <title>asterisk-v2</title>
    <desc>Created with Sketch.</desc>
    <defs></defs>
    <g id="Page-1" stroke="none" stroke-width="1" fill="none" fill-rule="evenodd">
        <g id="asterisk-v2" fill-rule="nonzero" fill="#000000">
            <path d="M99.5062141,49.8335 C99.5062141,77.1048868 77.3983866,99.2127146 50.127,99.2127146 C22.8556134,99.2127146 0.747785879,77.1048868 0.747785879,49.8335 C0.747785879,22.5621135 22.8556134,0.454286308 50.127,0.454286308 C77.3983866,0.454286308 99.5062141,22.5621135 99.5062141,49.8335 Z M25.0449191,73.4621336 C28.805971,76.0755838 32.5686171,78.690097 36.3296694,81.304079 C40.7920336,74.5465108 45.255992,67.787349 49.7183563,61.0297813 C49.9021851,61.1631365 49.7757364,61.0393548 49.9096233,61.2210472 C54.4676211,67.9148603 59.0272127,74.6102665 63.5852108,81.304079 C67.2506292,78.6587504 70.9176418,76.0123596 74.5830605,73.3665001 C74.487427,73.2708666 74.3917935,73.1752331 74.29616,73.0795996 C69.3875064,66.7045656 64.4772583,60.3279378 59.5686047,53.9529039 L59.5686047,53.8572709 C67.4100184,51.7214561 75.2530262,49.5856418 83.094439,47.4498274 C81.6918161,43.0830966 80.2891903,38.7147717 78.8865671,34.3480409 C71.1726645,37.1208806 63.457168,39.8947827 55.7432653,42.6681536 C56.1257993,34.5084927 56.5083333,26.3461754 56.8908673,18.1859842 L43.0240128,18.1859842 C43.374669,26.3461754 43.7253252,34.5084927 44.075981,42.6681536 C36.3302008,39.9271917 28.5828265,37.1851675 20.8370463,34.4436744 C19.4663001,38.7785274 18.0955538,43.1149744 16.7248076,47.4498274 C24.5662204,49.6175196 32.409228,51.7852118 40.250642,53.9529039 C35.1825988,60.4554492 30.1129619,66.9595883 25.0449191,73.4621336 Z" id="Shape" transform="translate(50.127000, 49.833500) scale(-1, 1) translate(-50.127000, -49.833500) "></path>
        </g>
    </g>
</svg>