<?xml version="1.0" encoding="UTF-8" standalone="no"?>
<svg width="20px" height="18px" viewBox="0 0 20 18" version="1.1" xmlns="http://www.w3.org/2000/svg" xmlns:xlink="http://www.w3.org/1999/xlink">
    <!-- Generator: Sketch 42 (36781) - http://www.bohemiancoding.com/sketch -->
    <title>noun_920193_cc</title>
    <desc>Created with Sketch.</desc>
    <defs></defs>
    <g id="Page-1" stroke="none" stroke-width="1" fill="none" fill-rule="evenodd">
        <g id="noun_920193_cc" fill-rule="nonzero" fill="#000000">
            <path d="M19.537,1.025 C19.351,0.897 19.115,0.868 18.904,0.948 L13.7,2.925 L6.447,0.929 C6.439,0.927 6.431,0.93 6.423,0.928 C6.334,0.906 6.242,0.902 6.15,0.917 C6.137,0.919 6.125,0.924 6.112,0.927 C6.082,0.934 6.051,0.938 6.022,0.949 L0.609,3.005 C0.343,3.106 0.167,3.361 0.167,3.646 L0.167,16.41 C0.167,16.635 0.278,16.846 0.463,16.974 C0.579,17.054 0.715,17.095 0.852,17.095 C0.934,17.095 1.017,17.08 1.095,17.051 L6.299,15.074 L13.552,17.071 C13.612,17.087 13.673,17.095 13.734,17.095 C13.813,17.095 13.89,17.079 13.964,17.053 C13.968,17.051 13.973,17.052 13.977,17.051 L19.39,14.995 C19.656,14.894 19.832,14.639 19.832,14.354 L19.832,1.59 C19.833,1.364 19.723,1.154 19.537,1.025 Z M1.537,4.119 L5.58,2.583 L5.58,13.881 L1.538,15.416 L1.538,4.119 L1.537,4.119 Z M6.951,2.489 L13.05,4.168 L13.05,15.511 L6.951,13.832 L6.951,2.489 Z M18.463,13.881 L14.421,15.416 L14.421,4.119 L18.463,2.584 L18.463,13.881 Z" id="Shape"></path>
        </g>
    </g>
</svg>