<?xml version="1.0" encoding="UTF-8" standalone="no"?>
<svg width="60px" height="60px" viewBox="0 0 60 60" version="1.1" xmlns="http://www.w3.org/2000/svg" xmlns:xlink="http://www.w3.org/1999/xlink">
    <!-- Generator: Sketch 42 (36781) - http://www.bohemiancoding.com/sketch -->
    <title>map-v1</title>
    <desc>Created with Sketch.</desc>
    <defs></defs>
    <g id="Page-1" stroke="none" stroke-width="1" fill="none" fill-rule="evenodd">
        <g id="map-v1" fill-rule="nonzero" fill="#000000">
            <g id="Page-1">
                <g id="noun_965915_cc">
                    <g id="Group">
                        <path d="M30,0 C13.4314575,-1.01453063e-15 2.02906125e-15,13.4314575 0,30 C-2.02906125e-15,46.5685425 13.4314575,60 30,60 C46.5685425,60 60,46.5685425 60,30 C60,22.0435053 56.8392948,14.4128879 51.2132034,8.78679656 C45.5871121,3.16070521 37.9564947,4.87194788e-16 30,0 Z M30,58 C14.536027,58 2,45.463973 2,30 C2,14.536027 14.536027,2 30,2 C45.463973,2 58,14.536027 58,30 C58,45.463973 45.463973,58 30,58 L30,58 Z" id="Shape"></path>
                        <path d="M50.0117647,19.0395215 L41.3647059,12.4983732 C40.4862745,11.8338756 39.2784314,11.8338756 38.4,12.4983732 L30,18.8526316 L21.6,12.4983732 C20.7215686,11.8338756 19.5137255,11.8338756 18.6352941,12.4983732 L9.98823529,19.0395215 C9.36612672,19.5101214 9,20.2486813 9,21.0330143 L9,42.8368421 C9,43.7806913 9.52871181,44.6435327 10.3657076,45.0656349 C11.2027035,45.4877371 12.2043093,45.3966445 12.9529412,44.830335 L20.1176471,39.4105263 L28.5176471,45.7647847 C29.3960784,46.4292823 30.6039216,46.4292823 31.4823529,45.7647847 L39.8823529,39.4105263 L47.0470588,44.830335 C47.7956907,45.3966445 48.7972965,45.4877371 49.6342924,45.0656349 C50.4712882,44.6435327 51,43.7806913 51,42.8368421 L51,21.0330143 C51,20.2486813 50.6338733,19.5101214 50.0117647,19.0395215 Z M11.4705882,42.8368421 L11.4705882,21.0330143 L18.8823529,15.4263158 L18.8823529,37.2924402 C18.7975846,37.3289089 18.715081,37.370516 18.6352941,37.4170335 L11.4705882,42.8368421 Z M21.6,37.4170335 C21.5202131,37.370516 21.4377095,37.3289089 21.3529412,37.2924402 L21.3529412,15.4263158 L28.5176471,20.8461244 C28.5975035,20.8925115 28.6799993,20.9341145 28.7647059,20.9707177 L28.7647059,42.8368421 L21.6,37.4170335 Z M31.2352941,42.8368421 L31.2352941,20.9707177 C31.3200007,20.9341145 31.4024965,20.8925115 31.4823529,20.8461244 L38.6470588,15.4263158 L38.6470588,37.2924402 C38.5623522,37.3290434 38.4798565,37.3706464 38.4,37.4170335 L31.2352941,42.8368421 Z M48.5294118,42.8368421 L41.3647059,37.4170335 C41.2848494,37.3706464 41.2023536,37.3290434 41.1176471,37.2924402 L41.1176471,15.4263158 L48.5294118,21.0330143 L48.5294118,42.8368421 Z" id="Shape"></path>
                    </g>
                </g>
            </g>
        </g>
    </g>
</svg>