<?xml version="1.0" encoding="UTF-8" standalone="no"?>
<svg width="60px" height="60px" viewBox="0 0 60 60" version="1.1" xmlns="http://www.w3.org/2000/svg" xmlns:xlink="http://www.w3.org/1999/xlink">
    <!-- Generator: Sketch 42 (36781) - http://www.bohemiancoding.com/sketch -->
    <title>noun_965915_cc</title>
    <desc>Created with Sketch.</desc>
    <defs></defs>
    <g id="Page-1" stroke="none" stroke-width="1" fill="none" fill-rule="evenodd">
        <g id="noun_965915_cc" fill-rule="nonzero" fill="#000000">
            <g id="Group">
                <path d="M30,0 C13.4314575,-1.01453063e-15 2.02906125e-15,13.4314575 0,30 C-2.02906125e-15,46.5685425 13.4314575,60 30,60 C46.5685425,60 60,46.5685425 60,30 C60,22.0435053 56.8392948,14.4128879 51.2132034,8.78679656 C45.5871121,3.16070521 37.9564947,4.87194788e-16 30,0 Z M30,58 C14.536027,58 2,45.463973 2,30 C2,14.536027 14.536027,2 30,2 C45.463973,2 58,14.536027 58,30 C58,45.463973 45.463973,58 30,58 L30,58 Z" id="Shape"></path>
                <path d="M46.2,20.9 L39.2,15.65 C38.4888889,15.1166667 37.5111111,15.1166667 36.8,15.65 L30,20.75 L23.2,15.65 C22.4888889,15.1166667 21.5111111,15.1166667 20.8,15.65 L13.8,20.9 C13.2963883,21.2777088 13,21.8704854 13,22.5 L13,40 C13,40.7575441 13.4280048,41.4500704 14.1055728,41.7888544 C14.7831409,42.1276384 15.5939647,42.0545265 16.2,41.6 L22,37.25 L28.8,42.35 C29.5111111,42.8833333 30.4888889,42.8833333 31.2,42.35 L38,37.25 L43.8,41.6 C44.4060353,42.0545265 45.2168591,42.1276384 45.8944272,41.7888544 C46.5719952,41.4500704 47,40.7575441 47,40 L47,22.5 C47,21.8704854 46.7036117,21.2777088 46.2,20.9 Z M15,40 L15,22.5 L21,18 L21,35.55 C20.931378,35.5792702 20.8645894,35.6126645 20.8,35.65 L15,40 Z M23.2,35.65 C23.1354106,35.6126645 23.068622,35.5792702 23,35.55 L23,18 L28.8,22.35 C28.8646457,22.3872308 28.931428,22.4206219 29,22.45 L29,40 L23.2,35.65 Z M31,40 L31,22.45 C31.068572,22.4206219 31.1353543,22.3872308 31.2,22.35 L37,18 L37,35.55 C36.931428,35.5793781 36.8646457,35.6127692 36.8,35.65 L31,40 Z M45,40 L39.2,35.65 C39.1353543,35.6127692 39.068572,35.5793781 39,35.55 L39,18 L45,22.5 L45,40 Z" id="Shape"></path>
            </g>
        </g>
    </g>
</svg>