<?xml version="1.0" encoding="UTF-8" standalone="no"?>
<svg width="60px" height="60px" viewBox="0 0 60 60" version="1.1" xmlns="http://www.w3.org/2000/svg" xmlns:xlink="http://www.w3.org/1999/xlink">
    <!-- Generator: Sketch 42 (36781) - http://www.bohemiancoding.com/sketch -->
    <title>noun_965940_cc</title>
    <desc>Created with Sketch.</desc>
    <defs></defs>
    <g id="Page-1" stroke="none" stroke-width="1" fill="none" fill-rule="evenodd">
        <g id="noun_965940_cc" transform="translate(-1.000000, 0.000000)" fill-rule="nonzero" fill="#000000">
            <path d="M61,15.19 C60.9805243,14.0151599 60.2769771,12.9598392 59.2,12.49 L32.17,0.24 C31.4118459,-0.0772271672 30.5581541,-0.0772271672 29.8,0.24 L2.8,12.47 C1.71609299,12.9368819 1.00662462,13.9958901 0.987209234,15.1759139 C0.967793852,16.3559376 1.64203911,17.4377126 2.71,17.94 L12.92,22.9 L2.82,27.48 C1.73609299,27.9468819 1.02662462,29.0058901 1.00720923,30.1859139 C0.987793852,31.3659376 1.66203911,32.4477126 2.73,32.95 L11.49,37.2 L2.82,41.13 C1.73609299,41.5968819 1.02662462,42.6558901 1.00720923,43.8359139 C0.987793852,45.0159376 1.66203911,46.0977126 2.73,46.6 L29.73,59.71 C30.1269822,59.8985213 30.5605356,59.9975216 31,60 C31.4428411,59.9989912 31.879967,59.8999549 32.28,59.71 L59.28,46.6 C60.3436091,46.0990765 61.0165948,45.0230491 61.0015234,43.8474805 C60.986452,42.6719119 60.2861016,41.6134913 59.21,41.14 L50.52,37.2 L59.27,33 C60.3336091,32.4990765 61.0065948,31.4230491 60.9915234,30.2474805 C60.976452,29.0719119 60.2761016,28.0134913 59.2,27.54 L49.08,22.9 L59.27,18 C60.3562842,17.4930916 61.0365324,16.3881798 61,15.19 Z M58.4,43 C58.7589924,43.1566131 58.9935081,43.5083866 59,43.9 C59.0088967,44.2977801 58.7811313,44.6629901 58.42,44.83 L58.42,44.83 L31.42,57.93 C31.1592341,58.0472193 30.8607659,58.0472193 30.6,57.93 L3.6,44.81 C3.23742799,44.65013 3.00345384,44.2912536 3.00345384,43.895 C3.00345384,43.4987464 3.23742799,43.13987 3.6,42.98 L13.8,38.36 L29.71,46.09 C29.9083882,46.1824053 30.1162921,46.2528243 30.33,46.3 L30.4,46.3 C30.5876497,46.3381455 30.7785206,46.3582372 30.97,46.36 L30.97,46.36 L31.14,46.36 C31.5238783,46.3419269 31.900709,46.2502654 32.25,46.09 L48.15,38.37 L58.4,43 Z M46.74,24 L58.4,29.32 C58.7589924,29.4766131 58.9935081,29.8283866 59,30.22 C59.0088967,30.6177801 58.7811313,30.9829901 58.42,31.15 L58.42,31.15 L47.74,36.33 L47.74,36.33 L31.41,44.26 C31.1492341,44.3772193 30.8507659,44.3772193 30.59,44.26 L14.28,36.33 L14.28,36.33 L3.58,31.14 C3.21742799,30.98013 2.98345384,30.6212536 2.98345384,30.225 C2.98345384,29.8287464 3.21742799,29.46987 3.58,29.31 L15.26,24 L29.74,31 C29.9383882,31.0924053 30.1462921,31.1628243 30.36,31.21 C30.466587,31.2158291 30.573413,31.2158291 30.68,31.21 C30.7865907,31.2156929 30.8934093,31.2156929 31,31.21 L31,31.21 C31.1610831,31.2062505 31.3216023,31.1895298 31.48,31.16 L31.65,31.16 C31.8675279,31.1103233 32.0788348,31.0365336 32.28,30.94 L46.74,24 Z M58.41,16.11 L58.41,16.11 L31.41,29.22 C31.1492341,29.3372193 30.8507659,29.3372193 30.59,29.22 L15.71,22 L15.71,22 L3.58,16.14 C3.21742799,15.98013 2.98345384,15.6212536 2.98345384,15.225 C2.98345384,14.8287464 3.21742799,14.46987 3.58,14.31 L30.58,2.08 C30.7134202,2.02612032 30.8561152,1.99894034 31,2 C31.1266534,1.99969185 31.2522124,2.02344627 31.37,2.07 L58.37,14.32 C58.7289924,14.4766131 58.9635081,14.8283866 58.97,15.22 C58.9803803,15.6073217 58.7660835,15.9657817 58.42,16.14 L58.41,16.11 Z" id="Shape"></path>
        </g>
    </g>
</svg>